#!OML:ASF G:\JayActor3\Patient Classification 1\Patient 1\Session 5\male.ASF
:FULLY-SPECIFIED
:DEGREES
464
root 10.105 16.5168 -5.87367 795.524 -86.9732 -773.024
lowerback 25.8641 -0.541529 3.23923
upperback 4.68083 -0.162357 0.294551
thorax -9.16354 -0.31501 -1.45862
lowerneck -0.00340715 -0.304743 2.01923
upperneck -4.95619 -0.366964 1.24609
head -1.52901 -0.260841 0.0542016
rclavicle -1.15295e-014 -1.63997e-014
rhumerus -30.7398 -5.09704 -86.4871
rradius 28.562
rwrist 1.13005
rhand -21.3878 -7.86563
rfingers 7.12502
rthumb 4.99992 -37.7866
lclavicle -1.15295e-014 -1.63997e-014
lhumerus -31.5021 -0.527325 86.6856
lradius 31.8783
lwrist 27.6039
lhand -19.1363 9.34577
lfingers 7.12502
lthumb 7.17363 39.2042
rfemur -29.2259 -1.76938 25.2927
rtibia 61.5917
rfoot -9.69917 -1.71082
rtoes -2.87782
lfemur -50.7552 2.49954 -24.5038
ltibia 30.3111
lfoot -3.67515 -1.78758
ltoes 6.52538
465
root 9.96083 16.5383 -5.86505 792.767 -87.3574 -770.281
lowerback 26.0581 -0.464991 2.82212
upperback 4.72176 -0.183351 0.207746
thorax -9.21923 -0.316148 -1.30784
lowerneck 0.037047 -0.33077 2.01566
upperneck -5.00976 -0.398458 1.29293
head -1.55314 -0.278436 0.0698939
rclavicle -3.8266e-015 -1.28216e-014
rhumerus -30.7445 -5.17351 -86.5216
rradius 28.721
rwrist 0.692245
rhand -21.7954 -7.94046
rfingers 7.12502
rthumb 4.60636 -37.8704
lclavicle -3.8266e-015 -1.28216e-014
lhumerus -31.5327 -0.745164 86.743
lradius 31.9383
lwrist 27.483
lhand -18.8095 9.51821
lfingers 7.12502
lthumb 7.48905 39.3656
rfemur -30.1803 -1.74395 24.6004
rtibia 63.4024
rfoot -9.50175 -1.8812
rtoes -3.13522
lfemur -50.1549 2.38545 -24.8675
ltibia 30.3552
lfoot -3.86589 -1.83531
ltoes 7.068
466
root 9.8173 16.5583 -5.85739 790.106 -87.723 -767.646
lowerback 26.2302 -0.381473 2.42533
upperback 4.77203 -0.193267 0.121194
thorax -9.2522 -0.312597 -1.17206
lowerneck 0.0768424 -0.355052 2.01077
upperneck -5.05564 -0.427837 1.33462
head -1.57472 -0.294725 0.0841999
rclavicle 7.70291e-015 1.13804e-014
rhumerus -30.7237 -5.21347 -86.5795
rradius 28.8304
rwrist 0.315938
rhand -22.1531 -8.019
rfingers 7.12502
rthumb 4.26095 -37.9561
lclavicle 7.70291e-015 1.13804e-014
lhumerus -31.5425 -0.930048 86.7736
lradius 31.9411
lwrist 27.3517
lhand -18.544 9.69849
lfingers 7.12502
lthumb 7.74528 39.5366
rfemur -31.1858 -1.70325 23.9545
rtibia 65.2041
rfoot -9.44603 -2.05513
rtoes -3.00289
lfemur -49.5595 2.3271 -25.2123
ltibia 30.4213
lfoot -4.16387 -1.88581
ltoes 7.28521
467
root 9.67431 16.577 -5.84965 788.024 -88.0516 -765.586
lowerback 26.3656 -0.300268 2.08019
upperback 4.82572 -0.193939 0.0417016
thorax -9.26176 -0.30597 -1.06125
lowerneck 0.110117 -0.372435 2.00415
upperneck -5.08097 -0.448978 1.35812
head -1.5886 -0.306116 0.0930135
rclavicle -4.42296e-015 -1.69464e-014
rhumerus -30.6749 -5.20228 -86.6594
rradius 28.899
rwrist 0.0327513
rhand -22.4158 -8.10168
rfingers 7.12502
rthumb 4.00721 -38.0437
lclavicle -4.42296e-015 -1.69464e-014
lhumerus -31.5394 -1.06684 86.7788
lradius 31.8916
lwrist 27.228
lhand -18.365 9.89055
lfingers 7.12502
lthumb 7.91805 39.7223
rfemur -32.2565 -1.64893 23.3792
rtibia 66.9742
rfoot -9.47236 -2.2401
rtoes -2.51907
lfemur -48.9935 2.31159 -25.5086
ltibia 30.5226
lfoot -4.55216 -1.91192
ltoes 7.22931
468
root 9.53194 16.5947 -5.84096 786.92 -88.3311 -764.485
lowerback 26.4564 -0.230454 1.81471
upperback 4.87391 -0.187701 -0.0292811
thorax -9.25418 -0.297987 -0.989222
lowerneck 0.127675 -0.383185 1.99699
upperneck -5.07396 -0.462802 1.35876
head -1.58944 -0.312762 0.094622
rclavicle -2.9271e-014 -3.84151e-014
rhumerus -30.6055 -5.13925 -86.7579
rradius 28.9315
rwrist -0.129683
rhand -22.5454 -8.17212
rfingers 7.12502
rthumb 3.88215 -38.1165
lclavicle -2.9271e-014 -3.84151e-014
lhumerus -31.5358 -1.16092 86.7614
lradius 31.8025
lwrist 27.1255
lhand -18.2808 10.0759
lfingers 7.12502
lthumb 7.99934 39.9046
rfemur -33.4088 -1.58943 22.8846
rtibia 68.6924
rfoot -9.5952 -2.48798
rtoes -2.01858
lfemur -48.4762 2.32294 -25.7444
ltibia 30.6631
lfoot -5.0045 -1.90315
ltoes 6.992
469
root 9.39032 16.6115 -5.83131 787.032 -88.5537 -764.57
lowerback 26.4938 -0.180541 1.63351
upperback 4.91245 -0.182654 -0.0877755
thorax -9.23007 -0.292284 -0.951558
lowerneck 0.134346 -0.384992 1.98839
upperneck -5.04201 -0.46614 1.33364
head -1.58043 -0.313138 0.0882538
rclavicle 4.87022e-015 4.32357e-015
rhumerus -30.5209 -5.02447 -86.8728
rradius 28.9394
rwrist -0.163833
rhand -22.551 -8.22215
rfingers 7.12502
rthumb 3.87674 -38.1666
lclavicle 4.87022e-015 4.32357e-015
lhumerus -31.5408 -1.20414 86.7223
lradius 31.6841
lwrist 27.0404
lhand -18.2882 10.2511
lfingers 7.12502
lthumb 7.99216 40.08
rfemur -34.6506 -1.52957 22.4777
rtibia 70.3415
rfoot -9.8586 -2.80296
rtoes -1.79375
lfemur -48.0196 2.34568 -25.9162
ltibia 30.8397
lfoot -5.48374 -1.85587
ltoes 6.7099
470
root 9.24966 16.6274 -5.82076 788.538 -88.7189 -766.017
lowerback 26.4893 -0.153597 1.53396
upperback 4.93666 -0.182598 -0.134663
thorax -9.20074 -0.290522 -0.946425
lowerneck 0.136995 -0.378504 1.98077
upperneck -4.99205 -0.459446 1.285
head -1.56501 -0.307715 0.0742519
rclavicle 3.08116e-015 -1.54058e-015
rhumerus -30.4309 -4.86687 -87.0019
rradius 28.9277
rwrist -0.0778389
rhand -22.4645 -8.23126
rfingers 7.12502
rthumb 3.96027 -38.1742
lclavicle 3.08116e-015 -1.54058e-015
lhumerus -31.5666 -1.20542 86.664
lradius 31.5541
lwrist 26.9653
lhand -18.3605 10.3997
lfingers 7.12502
lthumb 7.92245 40.2312
rfemur -35.9783 -1.4663 22.1544
rtibia 71.9063
rfoot -10.2472 -3.18133
rtoes -1.86578
lfemur -47.62 2.36988 -26.0274
ltibia 31.0435
lfoot -5.97284 -1.77228
ltoes 6.44491
471
root 9.10976 16.6425 -5.80971 791.031 -88.8355 -768.429
lowerback 26.4518 -0.14985 1.49482
upperback 4.94905 -0.193612 -0.170144
thorax -9.16808 -0.29498 -0.959758
lowerneck 0.138885 -0.364113 1.96863
upperneck -4.9344 -0.442823 1.22133
head -1.54699 -0.296824 0.0562034
rclavicle -1.88845e-015 -2.48481e-015
rhumerus -30.3404 -4.67238 -87.1403
rradius 28.9053
rwrist 0.0944645
rhand -22.3119 -8.20488
rfingers 7.12502
rthumb 4.10755 -38.145
lclavicle -1.88845e-015 -2.48481e-015
lhumerus -31.6171 -1.16675 86.5913
lradius 31.4266
lwrist 26.8924
lhand -18.4829 10.53
lfingers 7.12502
lthumb 7.80427 40.3659
rfemur -37.3722 -1.40124 21.8958
rtibia 73.3519
rfoot -10.8214 -3.57492
rtoes -2.46748
lfemur -47.2205 2.38903 -26.0958
ltibia 31.1836
lfoot -6.42649 -1.66589
ltoes 6.25002
472
root 8.97036 16.6566 -5.79837 793.986 -88.9122 -771.294
lowerback 26.3927 -0.166846 1.50236
upperback 4.95653 -0.217161 -0.197314
thorax -9.13027 -0.306177 -0.986604
lowerneck 0.136467 -0.345417 1.95688
upperneck -4.87652 -0.42102 1.1449
head -1.52817 -0.283132 0.0340873
rclavicle 3.27995e-015 5.06901e-015
rhumerus -30.2497 -4.45686 -87.2849
rradius 28.8819
rwrist 0.303864
rhand -22.1285 -8.15045
rfingers 7.12502
rthumb 4.28464 -38.0871
lclavicle 3.27995e-015 5.06901e-015
lhumerus -31.6828 -1.09658 86.5076
lradius 31.3026
lwrist 26.8023
lhand -18.6315 10.6503
lfingers 7.12502
lthumb 7.66082 40.4916
rfemur -38.8163 -1.33373 21.6848
rtibia 74.6902
rfoot -11.4406 -3.98658
rtoes -3.13277
lfemur -46.8396 2.40337 -26.1364
ltibia 31.3295
lfoot -6.87854 -1.5489
ltoes 6.19267
473
root 8.8292 16.6845 -5.78624 797.034 -88.9672 -774.254
lowerback 26.3217 -0.198351 1.53496
upperback 4.96327 -0.252007 -0.220532
thorax -9.08753 -0.323144 -1.01978
lowerneck 0.13491 -0.325271 1.94645
upperneck -4.8242 -0.397384 1.0628
head -1.51129 -0.268579 0.0100097
rclavicle 3.4191e-014 6.03311e-014
rhumerus -30.1661 -4.24213 -87.4282
rradius 28.8663
rwrist 0.509536
rhand -21.9268 -8.07193
rfingers 7.12502
rthumb 4.47946 -38.0046
lclavicle 3.4191e-014 6.03311e-014
lhumerus -31.7621 -1.00574 86.4166
lradius 31.189
lwrist 26.6886
lhand -18.7824 10.7594
lfingers 7.12502
lthumb 7.51514 40.6059
rfemur -40.2359 -1.26214 21.4941
rtibia 75.8342
rfoot -12.0563 -4.39546
rtoes -3.84884
lfemur -46.4065 2.4193 -26.1664
ltibia 31.4344
lfoot -7.3414 -1.43278
ltoes 6.13989
474
root 8.68991 16.6959 -5.77489 799.536 -89.0178 -776.678
lowerback 26.2436 -0.241224 1.5705
upperback 4.97354 -0.30069 -0.241859
thorax -9.03768 -0.34659 -1.04803
lowerneck 0.135022 -0.304794 1.93566
upperneck -4.78286 -0.373307 0.977805
head -1.49821 -0.253969 -0.0148641
rclavicle 1.2921e-015 -5.96354e-015
rhumerus -30.0901 -4.0382 -87.5645
rradius 28.8631
rwrist 0.66821
rhand -21.7361 -7.9782
rfingers 7.12502
rthumb 4.66357 -37.9069
lclavicle 1.2921e-015 -5.96354e-015
lhumerus -31.8453 -0.894607 86.3236
lradius 31.0811
lwrist 26.5457
lhand -18.9198 10.8546
lfingers 7.12502
lthumb 7.3826 40.7057
rfemur -41.7318 -1.18684 21.3088
rtibia 76.9328
rfoot -12.6738 -4.75553
rtoes -4.51982
lfemur -46.0157 2.4314 -26.2116
ltibia 31.5687
lfoot -7.78027 -1.3205
ltoes 6.0376
475
root 8.55073 16.7056 -5.76389 801.031 -89.0706 -778.108
lowerback 26.1628 -0.293818 1.60269
upperback 4.9871 -0.362915 -0.262809
thorax -8.98328 -0.376263 -1.06955
lowerneck 0.143625 -0.286058 1.92579
upperneck -4.75643 -0.351084 0.896728
head -1.49135 -0.240653 -0.0386113
rclavicle 6.16232e-015 4.47266e-015
rhumerus -30.0267 -3.85494 -87.6901
rradius 28.875
rwrist 0.744292
rhand -21.572 -7.87056
rfingers 7.12502
rthumb 4.82202 -37.7957
lclavicle 6.16232e-015 4.47266e-015
lhumerus -31.927 -0.776845 86.2334
lradius 30.9717
lwrist 26.3844
lhand -19.0396 10.9302
lfingers 7.12502
lthumb 7.26695 40.7854
rfemur -43.2407 -1.11727 21.1184
rtibia 77.9033
rfoot -13.2472 -5.04313
rtoes -5.10888
lfemur -45.6113 2.43949 -26.2738
ltibia 31.6932
lfoot -8.204 -1.21989
ltoes 5.90965
476
root 8.4116 16.7134 -5.7534 801.207 -89.1358 -778.231
lowerback 26.0809 -0.351949 1.62317
upperback 5.00152 -0.435641 -0.286251
thorax -8.92774 -0.410542 -1.08377
lowerneck 0.160224 -0.271493 1.9158
upperneck -4.73877 -0.333831 0.825043
head -1.48866 -0.230155 -0.0593455
rclavicle 1.87852e-014 3.54831e-014
rhumerus -29.9801 -3.69781 -87.8028
rradius 28.8984
rwrist 0.714137
rhand -21.4406 -7.7628
rfingers 7.12502
rthumb 4.94891 -37.685
lclavicle 1.87852e-014 3.54831e-014
lhumerus -32.0049 -0.667448 86.151
lradius 30.8576
lwrist 26.2225
lhand -19.1391 10.978
lfingers 7.12502
lthumb 7.17084 40.8366
rfemur -44.7621 -1.05926 20.9139
rtibia 78.7606
rfoot -13.7692 -5.2333
rtoes -5.54153
lfemur -45.2324 2.44124 -26.3597
ltibia 31.8868
lfoot -8.6557 -1.1317
ltoes 5.71775
477
root 8.27246 16.7194 -5.74383 799.384 -89.2164 -776.37
lowerback 26.0017 -0.413929 1.62698
upperback 5.01722 -0.51812 -0.313361
thorax -8.87258 -0.449015 -1.0894
lowerneck 0.184325 -0.261679 1.90547
upperneck -4.72703 -0.322182 0.767559
head -1.48915 -0.222823 -0.0755497
rclavicle 3.37934e-015 -5.86415e-015
rhumerus -29.9542 -3.58824 -87.8973
rradius 28.9406
rwrist 0.597649
rhand -21.347 -7.67478
rfingers 7.12502
rthumb 5.03928 -37.5949
lclavicle 3.37934e-015 -5.86415e-015
lhumerus -32.0763 -0.577455 86.0787
lradius 30.7363
lwrist 26.075
lhand -19.2161 10.992
lfingers 7.12502
lthumb 7.09655 40.853
rfemur -46.279 -1.02084 20.6945
rtibia 79.4786
rfoot -14.2132 -5.32331
rtoes -5.80824
lfemur -44.8341 2.43396 -26.4698
ltibia 32.0735
lfoot -9.09853 -1.06033
ltoes 5.52371
